# xmcd
#
# Track frame offsets:
#	150
#	16203
#	38784
#	46324
#	69322
#
# Disc length: 1014 seconds
#
# Revision: 0
# Processed by: cddbd v1.5.1PL0 Copyright (c) Steve Scherf et al.
# Submitted via: dBpowerAMP V4.0
#
DISCID=3503f405
DTITLE=Conversation - Take Me With You...
DYEAR=1900
DGENRE=Emo
TTITLE0=On Tour
TTITLE1=I'm Sorry Anyway (Piano Version)
TTITLE2=Anything At All
TTITLE3=Do You Think There's Something Wrong? (Live)
TTITLE4=Everybody's Gone Home (Live)
EXTD=
EXTT0=
EXTT1=
EXTT2=
EXTT3=
EXTT4=
PLAYORDER=
